<?xml version="1.0" standalone="no"?>
<!DOCTYPE svg PUBLIC "-//W3C//DTD SVG 20010904//EN"
 "http://www.w3.org/TR/2001/REC-SVG-20010904/DTD/svg10.dtd">
<svg version="1.0" xmlns="http://www.w3.org/2000/svg"
 width="926.000000pt" height="926.000000pt" viewBox="0 0 926.000000 926.000000"
 preserveAspectRatio="xMidYMid meet">

<g transform="translate(0.000000,926.000000) scale(0.100000,-0.100000)"
fill="#000000" stroke="none">
<path d="M4430 8759 c-41 -5 -88 -13 -105 -19 -16 -5 -151 -35 -300 -65 -360
-74 -334 -69 -555 -115 -107 -23 -238 -50 -290 -61 -52 -11 -144 -30 -205 -44
-60 -13 -121 -26 -135 -29 -44 -8 -357 -74 -670 -140 -397 -83 -435 -98 -555
-215 -106 -103 -165 -233 -171 -376 -2 -67 7 -129 57 -370 64 -313 148 -725
155 -765 11 -59 81 -402 189 -935 64 -313 124 -615 135 -670 29 -156 148 -752
166 -833 22 -102 66 -183 143 -265 120 -127 243 -185 416 -194 93 -5 115 -2
309 41 114 26 210 45 212 43 2 -2 -3 -24 -12 -48 -24 -63 -23 -218 1 -289 48
-145 148 -252 281 -302 32 -12 60 -22 62 -24 2 -1 -6 -17 -17 -35 -55 -96 -70
-267 -33 -381 51 -154 166 -261 327 -304 98 -27 211 -27 313 -1 50 12 92 21
92 18 0 -4 11 -78 25 -166 87 -551 273 -952 606 -1301 146 -154 229 -260 299
-386 22 -40 56 -88 75 -105 29 -28 42 -33 82 -33 64 0 113 26 140 75 32 56 29
89 -17 184 -70 145 -138 241 -290 410 -264 296 -307 355 -395 551 -102 227
-166 458 -210 770 -9 58 -17 114 -20 125 -3 15 9 31 50 63 31 23 57 42 59 42
3 0 10 -45 22 -145 38 -314 103 -545 207 -730 116 -206 291 -413 487 -577 74
-61 110 -78 167 -78 113 0 182 102 139 204 -8 20 -59 73 -127 133 -294 258
-433 468 -509 765 -18 67 -56 308 -75 467 -4 30 -8 61 -10 70 -1 9 -10 55 -19
103 -30 160 -145 463 -255 673 -38 72 -129 232 -204 356 -205 342 -274 489
-314 661 -39 174 -24 263 59 347 45 46 122 81 180 81 56 0 152 -29 212 -64 90
-53 229 -234 508 -660 167 -256 274 -401 468 -631 78 -92 330 -351 404 -415
105 -91 156 -119 216 -120 109 0 184 115 136 208 -16 32 -105 117 -219 211
-42 35 -76 66 -74 68 3 2 16 -1 30 -6 51 -20 189 -24 277 -8 162 29 272 87
373 196 118 128 144 199 222 618 66 351 65 344 76 337 5 -3 60 -61 123 -129
202 -219 276 -322 334 -467 50 -125 56 -175 44 -360 -9 -133 -105 -854 -142
-1068 -29 -164 -71 -477 -86 -635 -34 -369 -8 -504 184 -940 74 -169 110 -228
155 -256 43 -26 122 -25 165 1 43 26 76 99 69 147 -3 19 -44 114 -90 211 -119
248 -161 390 -173 587 -5 83 8 336 21 404 2 10 6 42 10 71 4 29 8 62 10 72 2
11 9 52 14 91 15 106 20 139 41 277 34 219 69 463 75 520 3 30 8 62 10 70 4
13 13 88 30 232 3 26 9 78 15 115 39 280 15 446 -97 668 -89 177 -191 304
-461 577 l-186 187 23 123 c33 173 67 348 101 523 67 347 140 728 160 835 12
63 34 180 50 260 16 80 49 253 74 385 25 132 50 261 55 285 20 85 13 221 -14
308 -30 96 -104 205 -178 263 -94 76 -176 105 -412 149 -33 6 -103 20 -155 31
-110 22 -450 89 -760 149 -118 22 -267 52 -330 65 -63 13 -133 26 -155 30 -22
3 -89 17 -150 30 -60 13 -191 38 -290 56 l-179 33 -59 53 c-75 67 -161 109
-260 128 -43 8 -84 14 -90 14 -7 -1 -46 -5 -87 -10z m-406 -495 c-24 -49 -88
-344 -165 -764 -27 -152 -83 -442 -194 -1010 -25 -124 -65 -335 -90 -470 -51
-274 -73 -381 -78 -386 -3 -4 -103 65 -192 133 -27 20 -94 68 -147 104 l-97
68 -89 -117 c-110 -144 -233 -325 -266 -389 -13 -27 -30 -76 -36 -109 -11 -56
-10 -65 10 -112 47 -109 185 -188 293 -168 19 3 52 22 75 42 l41 35 16 -38
c15 -36 15 -42 -4 -99 -11 -34 -34 -85 -51 -113 -16 -29 -30 -57 -30 -63 0
-13 71 -5 228 26 l113 23 -5 -21 c-45 -179 -46 -397 -3 -504 14 -33 42 -86 62
-117 21 -31 36 -57 34 -59 -2 -2 -134 -31 -294 -65 -159 -34 -299 -64 -310
-67 -11 -3 -49 -6 -84 -9 -113 -7 -213 51 -260 151 -18 37 -64 242 -120 534
-11 58 -56 283 -100 500 -44 217 -82 406 -84 420 -3 14 -8 36 -11 50 -3 14 -8
36 -10 50 -2 14 -68 342 -146 730 -78 388 -143 712 -145 720 -2 8 -24 116 -49
239 -50 242 -54 292 -31 349 36 85 83 111 276 151 79 16 232 48 339 71 107 22
260 54 340 70 80 16 255 52 390 80 135 28 344 71 465 96 121 24 267 55 325 67
58 13 106 23 107 22 1 0 -9 -23 -23 -51z m831 -24 c110 -22 292 -58 405 -80
113 -22 291 -57 395 -78 105 -22 228 -46 275 -55 47 -9 150 -30 230 -46 80
-16 219 -44 310 -61 302 -57 554 -110 602 -126 64 -21 122 -85 136 -150 8 -37
7 -67 -4 -124 -8 -41 -17 -88 -19 -105 -7 -42 -16 -86 -90 -470 -36 -187 -74
-385 -85 -440 -10 -55 -28 -152 -40 -215 -11 -63 -27 -146 -35 -185 -16 -76
-82 -423 -89 -466 -2 -15 -22 -118 -45 -230 -22 -112 -49 -256 -61 -319 -12
-63 -27 -146 -35 -185 -8 -38 -33 -167 -55 -285 -81 -428 -112 -575 -127 -607
-24 -51 -103 -118 -169 -143 -48 -18 -71 -21 -125 -16 -107 10 -556 103 -578
120 -8 6 -138 198 -289 426 -151 228 -288 433 -305 454 -17 21 -27 37 -22 35
6 -2 40 -19 76 -37 55 -28 86 -36 173 -45 69 -7 110 -7 116 -1 6 6 -3 40 -27
94 -27 63 -37 103 -41 157 -3 40 -2 73 1 73 3 0 28 -15 56 -34 69 -46 113 -60
181 -53 70 6 122 32 177 89 57 58 82 119 85 204 3 86 -20 157 -78 244 -42 64
-244 311 -312 382 l-35 37 -51 -26 c-102 -52 -371 -236 -436 -299 -81 -78
-113 -137 -118 -222 -5 -69 24 -178 62 -235 51 -75 168 -120 254 -96 23 6 46
9 49 5 14 -14 -115 -226 -138 -226 -4 0 -32 31 -64 70 -162 198 -312 279 -526
286 -128 3 -205 -12 -309 -63 -80 -39 -176 -124 -222 -198 -39 -63 -77 -167
-87 -241 -12 -85 7 -249 44 -374 13 -47 25 -88 25 -92 0 -4 -17 -12 -37 -17
-34 -10 -41 -8 -73 17 -44 35 -96 112 -110 160 -26 95 -19 137 265 1592 19 96
52 270 74 385 101 532 123 645 136 710 8 39 37 189 65 335 28 146 65 335 81
420 37 196 66 266 129 323 89 80 152 84 435 27z m-1523 -3105 c21 -8 47 -15
59 -15 13 0 19 -5 16 -13 -2 -7 -10 -39 -17 -70 -14 -68 -18 -67 -85 27 -81
116 -114 205 -47 129 20 -24 54 -49 74 -58z m844 -1409 c63 -104 113 -194 110
-201 -6 -17 -131 -80 -217 -108 -178 -60 -348 -71 -443 -29 -111 49 -146 183
-82 310 52 103 99 129 322 181 71 16 138 32 149 34 11 3 26 4 33 3 8 0 65 -86
128 -190z m295 -543 c17 -38 44 -104 60 -147 l30 -80 -53 -54 c-100 -102 -262
-194 -413 -232 -117 -31 -186 -17 -248 48 -23 24 -30 42 -34 91 -5 52 -2 68
21 114 38 79 107 126 253 173 151 48 235 83 298 122 28 17 51 32 53 32 2 0 17
-30 33 -67z"/>
<path d="M2800 7707 c-3 -3 -30 -8 -62 -11 -135 -16 -322 -90 -404 -160 -22
-19 -53 -58 -69 -87 -24 -45 -30 -68 -33 -139 -4 -99 15 -154 76 -222 42 -47
76 -66 156 -88 l59 -17 -36 -22 c-48 -30 -113 -104 -145 -166 -33 -66 -34
-164 -3 -247 31 -80 104 -157 183 -194 60 -28 69 -29 193 -28 152 2 251 26
394 97 102 50 167 107 206 179 27 48 30 62 30 143 0 78 -4 98 -29 153 -31 66
-81 119 -143 150 -49 25 -137 44 -171 37 -25 -5 -25 -5 -8 7 51 34 110 97 134
143 24 44 27 61 27 150 0 89 -3 105 -27 151 -50 94 -144 153 -268 168 -31 4
-58 5 -60 3z m10 -250 c57 -29 93 -131 70 -201 -21 -66 -112 -126 -189 -126
-49 0 -109 39 -130 84 -64 131 24 252 184 255 22 0 51 -5 65 -12z m128 -541
c65 -34 102 -96 102 -172 0 -57 -19 -94 -70 -134 -53 -42 -101 -59 -170 -60
-97 0 -159 64 -168 175 -7 89 39 155 134 189 51 19 138 20 172 2z"/>
<path d="M4775 7804 c-246 -90 -305 -117 -309 -138 -10 -55 -27 -229 -22 -233
3 -3 75 21 161 54 85 33 155 59 155 57 0 -4 -36 -198 -49 -269 -6 -27 -35
-180 -66 -340 -30 -159 -60 -310 -66 -334 -5 -24 -7 -46 -4 -50 4 -3 63 -18
133 -32 113 -23 128 -24 134 -10 9 21 77 352 164 796 2 11 24 118 49 238 25
120 45 226 45 236 0 15 -11 20 -57 26 -32 4 -67 9 -78 11 -77 16 -123 13 -190
-12z"/>
<path d="M5570 7681 c-111 -21 -227 -91 -285 -173 -21 -28 -38 -59 -39 -66 -1
-9 16 -20 39 -27 242 -76 248 -77 257 -60 22 39 71 85 102 95 90 29 187 3 219
-60 26 -49 19 -127 -16 -179 -37 -56 -81 -68 -195 -54 -48 6 -88 10 -89 9 -1
-1 -9 -35 -18 -76 -9 -41 -18 -87 -22 -102 -5 -25 -3 -28 34 -34 60 -9 144
-55 176 -96 41 -51 47 -117 17 -181 -37 -79 -110 -105 -214 -76 -49 13 -128
91 -142 139 l-10 35 -119 8 c-108 6 -185 3 -185 -8 0 -31 29 -123 53 -168 81
-154 287 -256 518 -257 258 -2 422 130 423 340 0 106 -30 178 -105 252 l-58
56 37 7 c86 16 155 74 198 169 23 52 26 67 22 140 -3 68 -9 92 -32 130 -56 96
-134 152 -295 213 -72 27 -196 38 -271 24z"/>
</g>
</svg>
